<svg xmlns="http://www.w3.org/2000/svg" width="320" height="320" viewBox="0 0 320 320" role="img" aria-label="ClawShield logo">
  <defs>
    <linearGradient id="shield" x1="0" y1="0" x2="1" y2="1">
      <stop offset="0%" stop-color="#2d6cdf"/>
      <stop offset="100%" stop-color="#0f2c66"/>
    </linearGradient>
    <linearGradient id="claw" x1="0" y1="0" x2="1" y2="1">
      <stop offset="0%" stop-color="#f7d26a"/>
      <stop offset="100%" stop-color="#c18b1e"/>
    </linearGradient>
  </defs>
  <rect width="320" height="320" rx="48" fill="#0b1020"/>
  <path d="M160 40c52 0 96 20 96 20v92c0 72-50 122-96 128-46-6-96-56-96-128V60s44-20 96-20z" fill="url(#shield)"/>
  <path d="M120 120c12-16 32-20 52-16 16 3 31 10 41 18" fill="none" stroke="url(#claw)" stroke-width="12" stroke-linecap="round"/>
  <path d="M106 150c18-18 48-22 72-18 24 4 46 14 60 24" fill="none" stroke="url(#claw)" stroke-width="12" stroke-linecap="round"/>
  <path d="M114 188c22-16 52-18 78-12 22 6 41 16 52 26" fill="none" stroke="url(#claw)" stroke-width="12" stroke-linecap="round"/>
</svg>
